<mxfile host="app.diagrams.net" modified="2022-02-24T07:55:40.433Z" agent="5.0 (Windows NT 10.0; Win64; x64) AppleWebKit/537.36 (KHTML, like Gecko) Chrome/98.0.4758.82 Safari/537.36" etag="2br4vVkHX_3X8lRBDjdk" version="16.1.4" type="github">
  <diagram id="A9nUJpdtBm5vHkU-3JfN" name="一物一码">
    <mxGraphModel dx="782" dy="436" grid="1" gridSize="10" guides="1" tooltips="1" connect="1" arrows="1" fold="1" page="1" pageScale="1" pageWidth="827" pageHeight="1169" math="0" shadow="0">
      <root>
        <mxCell id="0" />
        <mxCell id="1" parent="0" />
        <mxCell id="ZPPK0UZMcmSt7cbG0Obh-4" style="edgeStyle=orthogonalEdgeStyle;rounded=0;orthogonalLoop=1;jettySize=auto;html=1;entryX=0;entryY=0.5;entryDx=0;entryDy=0;" edge="1" parent="1" source="ZPPK0UZMcmSt7cbG0Obh-1" target="ZPPK0UZMcmSt7cbG0Obh-3">
          <mxGeometry relative="1" as="geometry" />
        </mxCell>
        <mxCell id="ZPPK0UZMcmSt7cbG0Obh-1" value="码类型&lt;br&gt;one_code_type" style="rounded=1;whiteSpace=wrap;html=1;" vertex="1" parent="1">
          <mxGeometry x="130" y="70" width="110" height="40" as="geometry" />
        </mxCell>
        <mxCell id="ZPPK0UZMcmSt7cbG0Obh-6" style="edgeStyle=orthogonalEdgeStyle;rounded=0;orthogonalLoop=1;jettySize=auto;html=1;entryX=0;entryY=0.5;entryDx=0;entryDy=0;" edge="1" parent="1" source="ZPPK0UZMcmSt7cbG0Obh-2" target="ZPPK0UZMcmSt7cbG0Obh-3">
          <mxGeometry relative="1" as="geometry" />
        </mxCell>
        <mxCell id="ZPPK0UZMcmSt7cbG0Obh-2" value="码组织&lt;br&gt;one_code_org" style="rounded=1;whiteSpace=wrap;html=1;" vertex="1" parent="1">
          <mxGeometry x="130" y="160" width="110" height="40" as="geometry" />
        </mxCell>
        <mxCell id="ZPPK0UZMcmSt7cbG0Obh-3" value="一物一码&lt;br&gt;one_code" style="rounded=1;whiteSpace=wrap;html=1;" vertex="1" parent="1">
          <mxGeometry x="330" y="110" width="110" height="40" as="geometry" />
        </mxCell>
      </root>
    </mxGraphModel>
  </diagram>
</mxfile>
